<?xml version="1.0" standalone="no"?>
<!DOCTYPE svg PUBLIC "-//W3C//DTD SVG 20010904//EN"
 "http://www.w3.org/TR/2001/REC-SVG-20010904/DTD/svg10.dtd">
<svg version="1.0" xmlns="http://www.w3.org/2000/svg"
 width="900.000000pt" height="673.000000pt" viewBox="0 0 900.000000 673.000000"
 preserveAspectRatio="xMidYMid meet">
<metadata>
Created by potrace 1.16, written by Peter Selinger 2001-2019
</metadata>
<g transform="translate(0.000000,673.000000) scale(0.100000,-0.100000)"
fill="#000000" stroke="none">
<path d="M3605 6314 c-212 -18 -477 -66 -686 -125 -177 -50 -295 -93 -476
-176 l-143 -65 -51 46 c-59 53 -149 99 -231 116 -78 18 -235 8 -323 -20 -358
-112 -633 -406 -915 -975 -150 -303 -237 -567 -262 -792 -31 -269 52 -584 188
-721 81 -81 207 -132 328 -132 l41 0 28 -93 c126 -411 356 -798 667 -1121 373
-387 864 -701 1380 -880 613 -213 1285 -120 1959 271 l114 67 51 -18 c91 -32
473 -205 700 -316 276 -136 561 -288 870 -463 257 -147 358 -189 490 -209 175
-25 345 32 468 156 80 80 122 151 164 274 95 281 54 619 -109 887 -112 183
-225 290 -440 417 -67 39 -254 154 -416 256 -162 101 -383 236 -490 299 -108
63 -199 118 -203 122 -12 11 524 -34 842 -70 198 -22 366 -48 553 -84 146 -29
262 -32 356 -10 207 49 359 204 418 425 26 98 23 280 -6 395 -90 357 -374 649
-751 773 -173 57 -549 117 -1120 177 -425 45 -711 80 -886 108 l-138 22 -13
115 c-27 253 -72 420 -159 590 -175 342 -499 583 -924 689 -209 52 -302 63
-575 66 -137 1 -272 1 -300 -1z m528 -225 c377 -35 677 -161 892 -374 140
-139 228 -298 278 -505 26 -105 54 -296 45 -306 -9 -8 -252 67 -359 112 -250
105 -387 203 -663 474 l-208 205 80 -125 c44 -69 112 -174 151 -235 214 -331
454 -495 926 -630 243 -70 536 -115 1205 -185 797 -84 1126 -143 1305 -232
154 -77 301 -207 378 -336 187 -306 145 -656 -91 -765 -70 -33 -233 -30 -415
6 -278 55 -608 91 -1322 147 -214 17 -469 40 -565 53 -147 18 -224 22 -480 22
-270 0 -324 -3 -473 -24 -92 -14 -164 -28 -160 -31 5 -4 109 -19 233 -34 392
-48 750 -113 860 -156 129 -51 668 -363 1165 -675 116 -72 273 -169 350 -215
246 -146 346 -244 436 -425 61 -124 89 -229 96 -365 13 -247 -81 -461 -234
-536 -72 -36 -172 -43 -263 -19 -79 20 -144 53 -371 183 -727 417 -1536 795
-1949 912 -284 80 -570 123 -794 118 l-138 -3 323 -117 c178 -65 384 -138 457
-164 73 -26 129 -51 125 -55 -4 -4 -62 -35 -129 -68 -600 -298 -1156 -339
-1701 -125 -459 180 -846 435 -1184 781 -207 212 -351 413 -478 669 -98 198
-190 467 -211 618 -42 289 157 896 455 1391 96 159 169 256 265 355 449 461
1350 736 2163 659z m-2103 -211 c89 -38 89 -43 -2 -110 -221 -164 -373 -344
-547 -648 -271 -472 -451 -1003 -451 -1332 0 -95 -1 -98 -22 -98 -80 0 -161
57 -203 143 -61 126 -90 352 -66 517 64 433 456 1166 742 1386 191 147 407
203 549 142z"/>
<path d="M1993 5035 c-33 -33 -35 -39 -30 -81 6 -58 24 -76 117 -114 238 -100
771 -270 844 -270 25 0 45 9 68 29 28 25 33 36 33 75 0 74 -22 88 -236 152
-260 77 -382 118 -552 185 -82 33 -162 59 -179 59 -21 0 -40 -10 -65 -35z"/>
<path d="M1824 4496 c-17 -8 -39 -24 -48 -37 -21 -31 -20 -98 2 -126 43 -55
585 -337 1045 -543 247 -110 261 -113 311 -64 33 34 41 74 22 117 -17 42 -26
47 -356 197 -288 131 -544 259 -740 370 -85 49 -166 91 -180 94 -14 3 -39 -1
-56 -8z"/>
<path d="M1658 4014 c-30 -16 -58 -61 -58 -94 0 -39 28 -76 132 -175 183 -174
320 -284 563 -450 114 -78 135 -90 173 -90 37 0 48 5 73 33 35 39 39 96 10
134 -11 14 -96 77 -190 142 -196 136 -321 237 -477 388 -134 130 -165 145
-226 112z"/>
</g>
</svg>
