<?xml version="1.0" standalone="no"?>
<!DOCTYPE svg PUBLIC "-//W3C//DTD SVG 20010904//EN"
"http://www.w3.org/TR/2001/REC-SVG-20010904/DTD/svg10.dtd">
<svg version="1.0" xmlns="http://www.w3.org/2000/svg"
	viewBox="0 0 820.000000 699.000000"
	preserveAspectRatio="xMidYMid meet">
	<metadata>
		Created by potrace 1.16, written by Peter Selinger 2001-2019
	</metadata>
	<g transform="translate(0.000000,699.000000) scale(0.100000,-0.100000)"
		fill="black" stroke="none">
		<path d="M4450 6813 c-504 -49 -906 -155 -1377 -364 -346 -152 -674 -352 -954
			-580 l-112 -92 -26 17 c-107 70 -233 106 -377 106 -247 0 -489 -122 -724 -366
			-112 -116 -185 -222 -270 -394 -189 -378 -337 -897 -396 -1385 -23 -192 -23
			-506 0 -640 31 -182 125 -428 221 -576 153 -236 371 -352 603 -320 42 5 91 13
			107 16 30 6 32 4 109 -125 399 -668 993 -1186 1746 -1526 519 -235 953 -350
			1560 -414 247 -27 750 -38 960 -21 587 47 1004 198 1270 460 99 98 155 177
			212 298 40 86 88 251 88 307 0 17 4 36 8 41 4 6 51 24 106 40 290 84 525 284
			665 564 270 540 163 1239 -235 1541 l-63 47 51 49 c27 27 78 85 112 129 160
			206 233 397 243 638 8 194 -25 353 -107 517 -215 425 -692 672 -1200 621 -63
			-7 -125 -14 -136 -17 -20 -5 -25 4 -54 93 -158 475 -365 780 -683 1007 -247
			176 -572 292 -916 326 -95 9 -349 11 -431 3z m388 -288 c180 -10 442 -80 603
			-160 288 -145 485 -346 633 -648 55 -112 114 -256 141 -344 6 -22 3 -23 -42
			-23 -187 0 -484 39 -668 87 -276 72 -485 174 -870 422 -272 176 -271 176 -190
			101 39 -35 158 -150 265 -255 107 -106 229 -218 270 -251 313 -247 678 -356
			1270 -380 151 -6 174 -4 275 17 141 31 398 34 509 6 321 -81 553 -296 638
			-593 31 -110 31 -277 0 -386 -45 -158 -116 -280 -236 -402 -104 -106 -209
			-158 -396 -197 -298 -62 -626 -112 -1045 -159 -276 -31 -271 -28 -115 -61 292
			-62 363 -71 618 -76 242 -6 420 4 625 32 91 13 104 12 174 -6 94 -23 148 -55
			217 -123 99 -99 168 -245 202 -422 23 -124 15 -376 -15 -487 -106 -395 -366
			-639 -722 -677 -52 -5 -206 -14 -344 -20 -260 -10 -1057 -57 -1135 -67 l-45
			-5 45 -20 c71 -31 273 -83 410 -107 203 -34 400 -52 655 -59 l240 -7 -3 -35
			c-9 -100 -72 -244 -150 -343 -135 -172 -405 -314 -737 -386 -618 -135 -1641
			-63 -2320 164 -289 96 -671 271 -902 412 -512 311 -900 698 -1195 1191 -176
			294 -208 389 -227 678 -40 592 178 1603 443 2051 369 625 1205 1190 2111 1428
			312 82 659 130 865 119 30 -2 97 -6 148 -9z m-3090 -930 c23 -9 42 -20 42 -24
			0 -3 -37 -49 -81 -101 -232 -274 -379 -559 -503 -977 -208 -698 -279 -1414
			-185 -1853 31 -144 33 -135 -33 -138 -154 -8 -264 80 -368 293 -115 235 -146
			391 -137 685 8 261 42 492 118 795 94 373 236 727 371 928 124 183 352 358
			526 402 71 18 192 13 250 -10z"/>
			<path d="M1933 4575 c-94 -40 -97 -201 -6 -249 45 -23 425 -77 708 -101 39 -3
				180 -12 315 -20 234 -13 247 -13 287 5 45 20 83 77 83 126 0 38 -28 91 -62
				115 -32 23 -76 28 -443 49 -215 12 -483 41 -660 70 -142 23 -179 24 -222 5z"/>
				<path d="M1855 3796 c-17 -7 -43 -28 -58 -45 -48 -58 -30 -163 35 -205 42 -27
					525 -163 818 -231 238 -55 937 -195 974 -195 18 0 48 10 67 23 91 60 87 184
					-7 239 -16 9 -189 49 -384 88 -620 124 -918 197 -1278 311 -103 32 -123 34
					-167 15z"/>
					<path d="M1791 3133 c-102 -53 -107 -184 -9 -248 184 -122 551 -316 748 -397
						240 -98 450 -178 470 -178 35 0 85 26 113 59 44 52 34 144 -19 193 -11 9 -129
						60 -264 113 -294 116 -503 217 -745 360 -197 117 -234 130 -294 98z"/>
					</g>
				</svg>
